STARTFONT 2.1
FONT -artwiz-snap-normal-r-normal--10-100-75-75-p-90-ISO8859-1
SIZE 10 75 75
FONTBOUNDINGBOX 8 10 0 -2
STARTPROPERTIES 26
FONTNAME_REGISTRY ""
FOUNDRY "artwiz"
FAMILY_NAME "snap"
WEIGHT_NAME "normal"
SLANT "r"
SETWIDTH_NAME "normal"
ADD_STYLE_NAME ""
PIXEL_SIZE 10
POINT_SIZE 100
RESOLUTION_X 75
RESOLUTION_Y 75
SPACING "p"
AVERAGE_WIDTH 90
CHARSET_REGISTRY "ISO8859"
CHARSET_ENCODING "1"
COPYRIGHT "Copyright artwiz, fixed by aLEczapKA"
FACE_NAME "snap"
WEIGHT 10
RESOLUTION 99
X_HEIGHT 6
QUAD_WIDTH 7
_XMBDFED_INFO "Edited with xmbdfed 4.5."
DEFAULT_CHAR 52
FONT_ASCENT 8
FONT_DESCENT 2
_ORIGINAL_FONT_NAME "snap"
ENDPROPERTIES
CHARS 95
STARTCHAR char32
ENCODING 32
SWIDTH 4800 0
DWIDTH 5 0
BBX 0 0 0 0
BITMAP
ENDCHAR
STARTCHAR char33
ENCODING 33
SWIDTH 2880 0
DWIDTH 3 0
BBX 1 7 1 0
BITMAP
80
80
80
80
80
00
80
ENDCHAR
STARTCHAR char34
ENCODING 34
SWIDTH 4800 0
DWIDTH 5 0
BBX 3 3 1 4
BITMAP
A0
A0
A0
ENDCHAR
STARTCHAR char35
ENCODING 35
SWIDTH 6720 0
DWIDTH 7 0
BBX 5 5 1 1
BITMAP
50
F8
50
F8
50
ENDCHAR
STARTCHAR char36
ENCODING 36
SWIDTH 6720 0
DWIDTH 7 0
BBX 5 8 1 -1
BITMAP
20
F8
A0
F8
28
28
F8
20
ENDCHAR
STARTCHAR char37
ENCODING 37
SWIDTH 7680 0
DWIDTH 8 0
BBX 6 6 1 0
BITMAP
44
A8
50
28
54
88
ENDCHAR
STARTCHAR char38
ENCODING 38
SWIDTH 7680 0
DWIDTH 8 0
BBX 6 6 1 0
BITMAP
60
90
64
98
88
74
ENDCHAR
STARTCHAR char39
ENCODING 39
SWIDTH 3840 0
DWIDTH 4 0
BBX 2 3 1 4
BITMAP
40
40
80
ENDCHAR
STARTCHAR char40
ENCODING 40
SWIDTH 4800 0
DWIDTH 5 0
BBX 3 10 1 -2
BITMAP
20
40
80
80
80
80
80
80
40
20
ENDCHAR
STARTCHAR char41
ENCODING 41
SWIDTH 4800 0
DWIDTH 5 0
BBX 3 10 1 -2
BITMAP
80
40
20
20
20
20
20
20
40
80
ENDCHAR
STARTCHAR char42
ENCODING 42
SWIDTH 4800 0
DWIDTH 5 0
BBX 5 3 0 4
BITMAP
D8
20
D8
ENDCHAR
STARTCHAR char43
ENCODING 43
SWIDTH 6720 0
DWIDTH 7 0
BBX 5 5 1 1
BITMAP
20
20
F8
20
20
ENDCHAR
STARTCHAR char44
ENCODING 44
SWIDTH 3840 0
DWIDTH 4 0
BBX 2 4 1 -2
BITMAP
40
40
40
80
ENDCHAR
STARTCHAR char45
ENCODING 45
SWIDTH 5760 0
DWIDTH 6 0
BBX 4 1 1 3
BITMAP
F0
ENDCHAR
STARTCHAR char46
ENCODING 46
SWIDTH 2880 0
DWIDTH 3 0
BBX 1 1 1 0
BITMAP
80
ENDCHAR
STARTCHAR char47
ENCODING 47
SWIDTH 5760 0
DWIDTH 6 0
BBX 4 8 1 -1
BITMAP
10
10
20
20
40
40
80
80
ENDCHAR
STARTCHAR char48
ENCODING 48
SWIDTH 6720 0
DWIDTH 7 0
BBX 5 6 1 0
BITMAP
F8
88
88
88
88
F8
ENDCHAR
STARTCHAR char49
ENCODING 49
SWIDTH 3840 0
DWIDTH 4 0
BBX 2 6 1 0
BITMAP
C0
40
40
40
40
40
ENDCHAR
STARTCHAR char50
ENCODING 50
SWIDTH 6720 0
DWIDTH 7 0
BBX 5 6 1 0
BITMAP
F8
08
F8
80
80
F8
ENDCHAR
STARTCHAR char51
ENCODING 51
SWIDTH 6720 0
DWIDTH 7 0
BBX 5 6 1 0
BITMAP
F8
08
F8
08
08
F8
ENDCHAR
STARTCHAR char52
ENCODING 52
SWIDTH 6720 0
DWIDTH 7 0
BBX 5 6 1 0
BITMAP
88
88
F8
08
08
08
ENDCHAR
STARTCHAR char53
ENCODING 53
SWIDTH 6720 0
DWIDTH 7 0
BBX 5 6 1 0
BITMAP
F8
80
F8
08
08
F8
ENDCHAR
STARTCHAR char54
ENCODING 54
SWIDTH 6720 0
DWIDTH 7 0
BBX 5 6 1 0
BITMAP
F8
80
F8
88
88
F8
ENDCHAR
STARTCHAR char55
ENCODING 55
SWIDTH 5760 0
DWIDTH 6 0
BBX 4 6 1 0
BITMAP
F0
10
10
10
10
10
ENDCHAR
STARTCHAR char56
ENCODING 56
SWIDTH 6720 0
DWIDTH 7 0
BBX 5 6 1 0
BITMAP
F8
88
F8
88
88
F8
ENDCHAR
STARTCHAR char57
ENCODING 57
SWIDTH 6720 0
DWIDTH 7 0
BBX 5 6 1 0
BITMAP
F8
88
F8
08
08
08
ENDCHAR
STARTCHAR char58
ENCODING 58
SWIDTH 2880 0
DWIDTH 3 0
BBX 1 6 1 0
BITMAP
80
80
00
00
80
80
ENDCHAR
STARTCHAR char59
ENCODING 59
SWIDTH 3840 0
DWIDTH 4 0
BBX 2 7 1 -1
BITMAP
40
40
00
00
40
40
80
ENDCHAR
STARTCHAR char60
ENCODING 60
SWIDTH 5760 0
DWIDTH 6 0
BBX 4 7 1 0
BITMAP
10
20
40
80
40
20
10
ENDCHAR
STARTCHAR char61
ENCODING 61
SWIDTH 6720 0
DWIDTH 7 0
BBX 5 3 1 2
BITMAP
F8
00
F8
ENDCHAR
STARTCHAR char62
ENCODING 62
SWIDTH 5760 0
DWIDTH 6 0
BBX 4 7 1 0
BITMAP
80
40
20
10
20
40
80
ENDCHAR
STARTCHAR char63
ENCODING 63
SWIDTH 5760 0
DWIDTH 6 0
BBX 4 6 1 0
BITMAP
F0
10
70
40
00
40
ENDCHAR
STARTCHAR char64
ENCODING 64
SWIDTH 6720 0
DWIDTH 7 0
BBX 5 6 1 0
BITMAP
F8
88
A8
B8
80
F8
ENDCHAR
STARTCHAR char65
ENCODING 65
SWIDTH 6720 0
DWIDTH 7 0
BBX 5 6 1 0
BITMAP
F8
88
F8
88
88
88
ENDCHAR
STARTCHAR char66
ENCODING 66
SWIDTH 6720 0
DWIDTH 7 0
BBX 5 6 1 0
BITMAP
F8
88
F0
88
88
F8
ENDCHAR
STARTCHAR char67
ENCODING 67
SWIDTH 6720 0
DWIDTH 7 0
BBX 5 6 1 0
BITMAP
F8
80
80
80
80
F8
ENDCHAR
STARTCHAR char68
ENCODING 68
SWIDTH 6720 0
DWIDTH 7 0
BBX 5 6 1 0
BITMAP
F0
88
88
88
88
F0
ENDCHAR
STARTCHAR char69
ENCODING 69
SWIDTH 5760 0
DWIDTH 6 0
BBX 4 6 1 0
BITMAP
F0
80
F0
80
80
F0
ENDCHAR
STARTCHAR char70
ENCODING 70
SWIDTH 5760 0
DWIDTH 6 0
BBX 4 6 1 0
BITMAP
F0
80
F0
80
80
80
ENDCHAR
STARTCHAR char71
ENCODING 71
SWIDTH 6720 0
DWIDTH 7 0
BBX 5 6 1 0
BITMAP
F8
80
B8
88
88
F8
ENDCHAR
STARTCHAR char72
ENCODING 72
SWIDTH 6720 0
DWIDTH 7 0
BBX 5 6 1 0
BITMAP
88
88
F8
88
88
88
ENDCHAR
STARTCHAR char73
ENCODING 73
SWIDTH 2880 0
DWIDTH 3 0
BBX 1 6 1 0
BITMAP
80
80
80
80
80
80
ENDCHAR
STARTCHAR char74
ENCODING 74
SWIDTH 4800 0
DWIDTH 5 0
BBX 3 7 1 -1
BITMAP
20
20
20
20
20
20
E0
ENDCHAR
STARTCHAR char75
ENCODING 75
SWIDTH 6720 0
DWIDTH 7 0
BBX 5 6 1 0
BITMAP
88
90
E0
90
88
88
ENDCHAR
STARTCHAR char76
ENCODING 76
SWIDTH 5760 0
DWIDTH 6 0
BBX 4 6 1 0
BITMAP
80
80
80
80
80
F0
ENDCHAR
STARTCHAR char77
ENCODING 77
SWIDTH 8640 0
DWIDTH 9 0
BBX 7 6 1 0
BITMAP
FE
92
92
92
92
92
ENDCHAR
STARTCHAR char78
ENCODING 78
SWIDTH 6720 0
DWIDTH 7 0
BBX 5 6 1 0
BITMAP
F8
88
88
88
88
88
ENDCHAR
STARTCHAR char79
ENCODING 79
SWIDTH 6720 0
DWIDTH 7 0
BBX 5 6 1 0
BITMAP
F8
88
88
88
88
F8
ENDCHAR
STARTCHAR char80
ENCODING 80
SWIDTH 6720 0
DWIDTH 7 0
BBX 5 6 1 0
BITMAP
F8
88
F8
80
80
80
ENDCHAR
STARTCHAR char81
ENCODING 81
SWIDTH 6720 0
DWIDTH 7 0
BBX 6 7 1 -1
BITMAP
F8
88
88
88
88
F8
0C
ENDCHAR
STARTCHAR char82
ENCODING 82
SWIDTH 6720 0
DWIDTH 7 0
BBX 5 6 1 0
BITMAP
F8
88
F8
90
88
88
ENDCHAR
STARTCHAR char83
ENCODING 83
SWIDTH 6720 0
DWIDTH 7 0
BBX 5 6 1 0
BITMAP
F8
80
F8
08
08
F8
ENDCHAR
STARTCHAR char84
ENCODING 84
SWIDTH 6720 0
DWIDTH 7 0
BBX 5 6 1 0
BITMAP
F8
20
20
20
20
20
ENDCHAR
STARTCHAR char85
ENCODING 85
SWIDTH 6720 0
DWIDTH 7 0
BBX 5 6 1 0
BITMAP
88
88
88
88
88
F8
ENDCHAR
STARTCHAR char86
ENCODING 86
SWIDTH 6720 0
DWIDTH 7 0
BBX 5 6 1 0
BITMAP
88
88
88
88
50
20
ENDCHAR
STARTCHAR char87
ENCODING 87
SWIDTH 8640 0
DWIDTH 9 0
BBX 7 6 1 0
BITMAP
92
92
92
92
92
FE
ENDCHAR
STARTCHAR char88
ENCODING 88
SWIDTH 6720 0
DWIDTH 7 0
BBX 5 6 1 0
BITMAP
88
50
20
50
88
88
ENDCHAR
STARTCHAR char89
ENCODING 89
SWIDTH 6720 0
DWIDTH 7 0
BBX 5 7 1 0
BITMAP
88
88
F8
20
20
20
20
ENDCHAR
STARTCHAR char90
ENCODING 90
SWIDTH 6720 0
DWIDTH 7 0
BBX 5 6 1 0
BITMAP
F8
10
20
40
80
F8
ENDCHAR
STARTCHAR char91
ENCODING 91
SWIDTH 4800 0
DWIDTH 5 0
BBX 3 10 1 -2
BITMAP
E0
80
80
80
80
80
80
80
80
E0
ENDCHAR
STARTCHAR char92
ENCODING 92
SWIDTH 5760 0
DWIDTH 6 0
BBX 4 8 1 -1
BITMAP
80
80
40
40
20
20
10
10
ENDCHAR
STARTCHAR char93
ENCODING 93
SWIDTH 4800 0
DWIDTH 5 0
BBX 3 10 1 -2
BITMAP
E0
20
20
20
20
20
20
20
20
E0
ENDCHAR
STARTCHAR char94
ENCODING 94
SWIDTH 6720 0
DWIDTH 7 0
BBX 5 3 1 4
BITMAP
20
50
88
ENDCHAR
STARTCHAR char95
ENCODING 95
SWIDTH 7680 0
DWIDTH 8 0
BBX 6 1 1 -1
BITMAP
FC
ENDCHAR
STARTCHAR char96
ENCODING 96
SWIDTH 3840 0
DWIDTH 4 0
BBX 2 3 1 4
BITMAP
80
80
40
ENDCHAR
STARTCHAR char97
ENCODING 97
SWIDTH 6720 0
DWIDTH 7 0
BBX 5 5 1 0
BITMAP
F8
08
F8
88
F8
ENDCHAR
STARTCHAR char98
ENCODING 98
SWIDTH 6720 0
DWIDTH 7 0
BBX 5 7 1 0
BITMAP
80
80
F8
88
88
88
F8
ENDCHAR
STARTCHAR char99
ENCODING 99
SWIDTH 6720 0
DWIDTH 7 0
BBX 5 5 1 0
BITMAP
F8
80
80
80
F8
ENDCHAR
STARTCHAR char100
ENCODING 100
SWIDTH 6720 0
DWIDTH 7 0
BBX 5 7 1 0
BITMAP
08
08
F8
88
88
88
F8
ENDCHAR
STARTCHAR char101
ENCODING 101
SWIDTH 6720 0
DWIDTH 7 0
BBX 5 5 1 0
BITMAP
F8
88
F8
80
F8
ENDCHAR
STARTCHAR char102
ENCODING 102
SWIDTH 4800 0
DWIDTH 5 0
BBX 4 7 0 0
BITMAP
70
40
F0
40
40
40
40
ENDCHAR
STARTCHAR char103
ENCODING 103
SWIDTH 6720 0
DWIDTH 7 0
BBX 5 7 1 -2
BITMAP
F8
88
88
88
F8
08
F8
ENDCHAR
STARTCHAR char104
ENCODING 104
SWIDTH 6720 0
DWIDTH 7 0
BBX 5 7 1 0
BITMAP
80
80
F8
88
88
88
88
ENDCHAR
STARTCHAR char105
ENCODING 105
SWIDTH 2880 0
DWIDTH 3 0
BBX 1 7 1 0
BITMAP
80
00
80
80
80
80
80
ENDCHAR
STARTCHAR char106
ENCODING 106
SWIDTH 3840 0
DWIDTH 4 0
BBX 3 9 0 -2
BITMAP
20
00
20
20
20
20
20
20
E0
ENDCHAR
STARTCHAR char107
ENCODING 107
SWIDTH 6720 0
DWIDTH 7 0
BBX 5 7 1 0
BITMAP
80
80
88
90
E0
90
88
ENDCHAR
STARTCHAR char108
ENCODING 108
SWIDTH 2880 0
DWIDTH 3 0
BBX 1 7 1 0
BITMAP
80
80
80
80
80
80
80
ENDCHAR
STARTCHAR char109
ENCODING 109
SWIDTH 8640 0
DWIDTH 9 0
BBX 7 5 1 0
BITMAP
FE
92
92
92
92
ENDCHAR
STARTCHAR char110
ENCODING 110
SWIDTH 6720 0
DWIDTH 7 0
BBX 5 5 1 0
BITMAP
F8
88
88
88
88
ENDCHAR
STARTCHAR char111
ENCODING 111
SWIDTH 6720 0
DWIDTH 7 0
BBX 5 5 1 0
BITMAP
F8
88
88
88
F8
ENDCHAR
STARTCHAR char112
ENCODING 112
SWIDTH 6720 0
DWIDTH 7 0
BBX 5 7 1 -2
BITMAP
F8
88
88
88
F8
80
80
ENDCHAR
STARTCHAR char113
ENCODING 113
SWIDTH 6720 0
DWIDTH 7 0
BBX 5 7 1 -2
BITMAP
F8
88
88
88
F8
08
08
ENDCHAR
STARTCHAR char114
ENCODING 114
SWIDTH 4800 0
DWIDTH 5 0
BBX 4 5 1 0
BITMAP
F0
80
80
80
80
ENDCHAR
STARTCHAR char115
ENCODING 115
SWIDTH 6720 0
DWIDTH 7 0
BBX 5 5 1 0
BITMAP
F8
80
F8
08
F8
ENDCHAR
STARTCHAR char116
ENCODING 116
SWIDTH 4800 0
DWIDTH 5 0
BBX 3 6 1 0
BITMAP
40
E0
40
40
40
40
ENDCHAR
STARTCHAR char117
ENCODING 117
SWIDTH 6720 0
DWIDTH 7 0
BBX 5 5 1 0
BITMAP
88
88
88
88
F8
ENDCHAR
STARTCHAR char118
ENCODING 118
SWIDTH 6720 0
DWIDTH 7 0
BBX 5 5 1 0
BITMAP
88
88
88
50
20
ENDCHAR
STARTCHAR char119
ENCODING 119
SWIDTH 8640 0
DWIDTH 9 0
BBX 7 5 1 0
BITMAP
92
92
92
92
FE
ENDCHAR
STARTCHAR char120
ENCODING 120
SWIDTH 6720 0
DWIDTH 7 0
BBX 5 5 1 0
BITMAP
88
50
20
50
88
ENDCHAR
STARTCHAR char121
ENCODING 121
SWIDTH 6720 0
DWIDTH 7 0
BBX 5 7 1 -2
BITMAP
88
88
88
88
F8
08
F8
ENDCHAR
STARTCHAR char122
ENCODING 122
SWIDTH 6720 0
DWIDTH 7 0
BBX 5 5 1 0
BITMAP
F8
10
20
40
F8
ENDCHAR
STARTCHAR char123
ENCODING 123
SWIDTH 5760 0
DWIDTH 6 0
BBX 4 10 1 -2
BITMAP
70
40
40
40
C0
40
40
40
40
70
ENDCHAR
STARTCHAR char124
ENCODING 124
SWIDTH 2880 0
DWIDTH 3 0
BBX 1 9 1 -1
BITMAP
80
80
80
80
80
80
80
80
80
ENDCHAR
STARTCHAR char125
ENCODING 125
SWIDTH 5760 0
DWIDTH 6 0
BBX 4 10 1 -2
BITMAP
E0
20
20
20
30
20
20
20
20
E0
ENDCHAR
STARTCHAR char126
ENCODING 126
SWIDTH 6720 0
DWIDTH 7 0
BBX 5 2 1 4
BITMAP
E8
B8
ENDCHAR
ENDFONT
